<svg width="32" height="32" viewBox="0 0 32 32" fill="none" xmlns="http://www.w3.org/2000/svg">
<path d="M30.4 0H1.6C1.17565 0 0.768687 0.168571 0.468629 0.468629C0.168571 0.768687 0 1.17565 0 1.6V30.4C0 30.8243 0.168571 31.2313 0.468629 31.5314C0.768687 31.8314 1.17565 32 1.6 32H30.4C30.8243 32 31.2313 31.8314 31.5314 31.5314C31.8314 31.2313 32 30.8243 32 30.4V1.6C32 1.17565 31.8314 0.768687 31.5314 0.468629C31.2313 0.168571 30.8243 0 30.4 0Z" fill="#EFBB3A"/>
<path d="M28.6 2H3.4C3.0287 2 2.6726 2.1475 2.41005 2.41005C2.1475 2.6726 2 3.0287 2 3.4V28.6C2 28.9713 2.1475 29.3274 2.41005 29.59C2.6726 29.8525 3.0287 30 3.4 30H28.6C28.9713 30 29.3274 29.8525 29.59 29.59C29.8525 29.3274 30 28.9713 30 28.6V3.4C30 3.0287 29.8525 2.6726 29.59 2.41005C29.3274 2.1475 28.9713 2 28.6 2Z" fill="#353535"/>
<path d="M25.3056 13.6512C25.1312 13.6688 24.9552 13.6768 24.7808 13.6784C23.8315 13.6796 22.8969 13.4443 22.0613 12.9937C21.2258 12.5431 20.5157 11.8915 19.9952 11.0976V19.8864C19.9955 21.1716 19.6147 22.4281 18.9008 23.4969C18.187 24.5656 17.1722 25.3987 15.9849 25.8907C14.7975 26.3827 13.4909 26.5115 12.2304 26.2608C10.9698 26.0102 9.81191 25.3913 8.90311 24.4825C7.9943 23.5737 7.37543 22.4158 7.12477 21.1552C6.87411 19.8947 7.00292 18.5881 7.49491 17.4007C7.9869 16.2134 8.81996 15.1986 9.88873 14.4848C10.9575 13.7709 12.214 13.3901 13.4992 13.3904C13.6352 13.3904 13.7664 13.4032 13.9008 13.4112V16.6112C13.4532 16.557 12.9991 16.5949 12.5667 16.7225C12.1342 16.8502 11.7324 17.065 11.386 17.3537C11.0396 17.6423 10.7559 17.9988 10.5523 18.4011C10.3486 18.8034 10.2295 19.2432 10.202 19.6932C10.1746 20.1433 10.2395 20.5943 10.3928 21.0184C10.546 21.4424 10.7844 21.8307 11.0932 22.1593C11.402 22.4879 11.7747 22.7498 12.1885 22.9291C12.6022 23.1083 13.0483 23.2011 13.4992 23.2016C14.3891 23.2177 15.2497 22.8839 15.896 22.272C16.5423 21.6601 16.9227 20.819 16.9552 19.9296L16.9872 5H20.0496C20.1894 6.33033 20.7925 7.56916 21.7533 8.49984C22.7141 9.43052 23.9715 9.99381 25.3056 10.0912V13.6512Z" fill="#EFBB3A"/>
</svg>
