<svg width="19" height="22" viewBox="0 0 19 22" fill="none" xmlns="http://www.w3.org/2000/svg">
<path d="M18.3056 8.6512C18.1312 8.6688 17.9552 8.6768 17.7808 8.6784C16.8315 8.67964 15.8969 8.44433 15.0613 7.99374C14.2258 7.54314 13.5157 6.89147 12.9952 6.0976V14.8864C12.9955 16.1716 12.6147 17.4281 11.9008 18.4969C11.187 19.5656 10.1722 20.3987 8.98487 20.8907C7.79752 21.3827 6.49094 21.5115 5.23038 21.2608C3.96982 21.0102 2.81191 20.3913 1.90311 19.4825C0.994305 18.5737 0.375435 17.4158 0.124775 16.1552C-0.125886 14.8947 0.00292307 13.5881 0.494909 12.4007C0.986896 11.2134 1.81996 10.1986 2.88873 9.48478C3.9575 8.77093 5.21396 8.39008 6.4992 8.3904C6.6352 8.3904 6.7664 8.4032 6.9008 8.4112V11.6112C6.45315 11.557 5.99915 11.5949 5.56668 11.7225C5.13421 11.8502 4.73242 12.065 4.386 12.3537C4.03958 12.6423 3.75586 12.9988 3.55225 13.4011C3.34865 13.8034 3.22947 14.2432 3.20204 14.6932C3.17461 15.1433 3.23952 15.5943 3.39276 16.0184C3.54601 16.4424 3.78436 16.8307 4.09316 17.1593C4.40197 17.4879 4.77471 17.7498 5.18847 17.9291C5.60223 18.1083 6.04828 18.2011 6.4992 18.2016C7.38907 18.2177 8.24971 17.8839 8.89602 17.272C9.54232 16.6601 9.92265 15.819 9.9552 14.9296L9.9872 0H13.0496C13.1894 1.33033 13.7925 2.56916 14.7533 3.49984C15.7141 4.43052 16.9715 4.99381 18.3056 5.0912V8.6512Z" fill="#EFBB3A"/>
</svg>
